<svg width="55" height="18" viewBox="0 0 55 18" fill="none" xmlns="http://www.w3.org/2000/svg">
<path d="M4.63477 17.416V15.7754C2.1543 15.5898 0.289062 14.2031 0.132812 11.9766L0.123047 11.8398H2.14453L2.16406 11.9473C2.34961 12.9922 3.05273 13.832 4.63477 13.998V9.73047L4.23438 9.64258C1.73438 9.06641 0.416016 7.93359 0.416016 5.95117V5.94141C0.416016 3.77344 2.16406 2.31836 4.63477 2.13281V0.492188H5.73828V2.13281C8.15039 2.31836 9.85938 3.73438 10.0156 5.86328L10.0254 6.01953H7.99414L7.98438 5.93164C7.84766 4.79883 6.99805 4.06641 5.73828 3.91016V7.99219L6.20703 8.09961C8.79492 8.69531 10.1816 9.75977 10.1816 11.8398V11.8496C10.1816 14.2422 8.22852 15.6094 5.73828 15.7754V17.416H4.63477ZM2.48633 5.82422C2.48633 6.72266 3.0625 7.36719 4.63477 7.73828V3.91016C3.22852 4.08594 2.48633 4.91602 2.48633 5.80469V5.82422ZM5.75781 9.99414L5.73828 9.98438V14.0176C7.42773 13.8809 8.11133 13.0605 8.11133 12.0156V12.0059C8.11133 11.0195 7.59375 10.4238 5.75781 9.99414ZM12.7012 16V1.9082H14.8887V16H12.7012ZM17.4863 16V1.9082H22.457C26.6367 1.9082 29.127 4.47656 29.127 8.91016V8.92969C29.127 13.3828 26.6562 16 22.457 16H17.4863ZM19.6738 14.1055H22.252C25.2402 14.1055 26.8906 12.2793 26.8906 8.94922V8.92969C26.8906 5.61914 25.2207 3.79297 22.252 3.79297H19.6738V14.1055ZM31.2168 16V1.9082H36.6855C39.5664 1.9082 41.3828 3.57812 41.3828 6.22461V6.24414C41.3828 8.1582 40.3379 9.68164 38.6484 10.2578L41.8027 16H39.2832L36.4121 10.5898H33.4043V16H31.2168ZM33.4043 8.79297H36.4707C38.1602 8.79297 39.127 7.86523 39.127 6.26367V6.24414C39.127 4.68164 38.0918 3.74414 36.4121 3.74414H33.4043V8.79297ZM42.6328 16L47.3203 8.91016V8.88086L42.6816 1.9082H45.2891L48.7754 7.36719H48.8633L52.3594 1.9082H54.8301L50.0547 8.94922V8.98828L54.7422 16H52.1836L48.668 10.6191H48.5898L45.0547 16H42.6328Z" fill="#3C3C3C"/>
</svg>
