<svg width="48" height="16" viewBox="0 0 48 16" fill="none" xmlns="http://www.w3.org/2000/svg">
<g clip-path="url(#clip0_169_977)">
<path d="M6.9354 12.0314C6.9354 11.4441 6.94178 9.87454 6.92729 9.68115C6.93992 7.34554 5.23956 5.69798 4.16535 5.82642C3.42203 5.89084 2.79907 6.19354 2.46459 7.06435C2.15457 7.87591 2.43173 8.95539 3.46246 9.20869C4.5646 9.48072 5.20817 9.70705 5.67393 10.0264C6.24461 10.4173 6.7105 11.1641 6.72287 12.0323" fill="#0060AF"/>
<path d="M7.37586 15.5817C5.43251 15.5817 3.4353 15.1037 1.44075 14.1582L1.39181 14.1342L1.3684 14.0844C0.473336 12.1974 0 10.1336 0 8.11437C0 6.09821 0.453918 4.12269 1.34965 2.2383L1.37425 2.18822L1.42413 2.16325C3.26919 1.29032 5.25403 0.848145 7.32532 0.848145C9.25484 0.848145 11.3155 1.3404 13.2836 2.27416L13.3341 2.29661L13.3574 2.34761C14.2696 4.26933 14.7507 6.33264 14.7507 8.31839C14.7507 10.2964 14.2888 12.2737 13.3755 14.1942L13.3514 14.2447L13.3006 14.268C11.4837 15.127 9.43478 15.5817 7.37586 15.5817ZM1.62535 13.8995C3.56298 14.8097 5.49542 15.2694 7.37586 15.2694C9.36975 15.2694 11.3527 14.8341 13.1179 14.009C13.9947 12.148 14.4392 10.2327 14.4392 8.31839C14.4392 6.3964 13.9753 4.39711 13.0978 2.53197C11.1878 1.63527 9.19312 1.15975 7.32532 1.15975C5.32 1.15975 3.39793 1.58453 1.60859 2.42253C0.749702 4.24901 0.312543 6.16289 0.312543 8.11437C0.312543 10.0696 0.766859 12.0697 1.62535 13.8995Z" fill="#0060AF"/>
<path d="M6.47552 12.0323C6.47911 11.2796 6.05844 10.614 5.50863 10.2563C5.02093 9.94014 4.36619 9.7324 3.30993 9.46489C2.98343 9.38148 2.64189 9.19619 2.53616 8.96002C2.25647 9.24148 2.20566 9.87426 2.25487 10.244C2.31206 10.672 2.81279 11.3773 3.56675 11.4049C4.02718 11.4234 4.60931 11.306 4.88847 11.2468C5.37005 11.1429 6.13199 11.4441 6.25328 12.0314" fill="#0060AF"/>
<path d="M7.32494 2.18634C6.04658 2.18634 4.94231 3.02832 4.9463 4.48528C4.95029 5.71047 5.93686 6.36636 6.2889 6.83484C6.82089 7.5408 7.10882 8.37641 7.13875 9.65499C7.16202 10.6726 7.16083 11.6774 7.16601 12.0335H7.44823C7.44332 11.6609 7.43054 10.5942 7.44517 9.62351C7.46432 8.34453 7.76263 7.5408 8.29488 6.83484C8.64998 6.36636 9.63575 5.71047 9.63788 4.48528C9.64267 3.02832 8.53907 2.18634 7.26177 2.18634" fill="#0060AF"/>
<path d="M7.6495 12.0314C7.6495 11.4441 7.64285 9.87454 7.65708 9.68115C7.64458 7.34554 9.34388 5.69798 10.419 5.82642C11.1623 5.89084 11.7846 6.19354 12.1201 7.06435C12.4298 7.87591 12.151 8.95539 11.1215 9.20869C10.0188 9.48072 9.37606 9.70705 8.90911 10.0264C8.33909 10.4173 7.90579 11.1641 7.89249 12.0323" fill="#0060AF"/>
<path d="M8.10989 12.0323C8.1059 11.2796 8.52644 10.614 9.07465 10.2563C9.56434 9.94014 10.2199 9.7324 11.2752 9.46489C11.6024 9.38148 11.9435 9.19619 12.0474 8.96002C12.3284 9.24148 12.3791 9.87426 12.3299 10.244C12.2715 10.672 11.7721 11.3773 11.0195 11.4049C10.5592 11.4234 9.97397 11.306 9.69601 11.2468C9.21629 11.1429 8.45222 11.4441 8.3304 12.0314" fill="#0060AF"/>
<path d="M8.50441 14.4624L8.34082 13.2703L8.73569 13.2105C8.83184 13.1974 8.94888 13.2141 8.99569 13.2743C9.04743 13.3371 9.06326 13.389 9.07323 13.4714C9.08813 13.5732 9.0586 13.6911 8.94369 13.7498V13.7533C9.07204 13.7533 9.14957 13.8454 9.17205 14.0008C9.17537 14.0336 9.18508 14.1129 9.17537 14.1791C9.1493 14.3365 9.05528 14.3871 8.89661 14.4092L8.50441 14.4624ZM8.75856 14.2489C8.80538 14.2423 8.85286 14.2398 8.88996 14.2161C8.94675 14.1791 8.94157 14.0998 8.93372 14.0409C8.9139 13.9116 8.88012 13.8624 8.74274 13.8827L8.65642 13.896L8.71108 14.2556L8.75856 14.2489ZM8.67584 13.6981C8.72811 13.6896 8.79899 13.6834 8.82852 13.6338C8.84395 13.6007 8.86376 13.5744 8.85073 13.5009C8.83464 13.4136 8.80564 13.3595 8.69472 13.3805L8.59139 13.3971L8.63208 13.7026" fill="#0060AF"/>
<path d="M10.2148 13.7454C10.2179 13.7676 10.2215 13.7923 10.2228 13.8144C10.2547 14.0319 10.2148 14.2119 9.97012 14.2614C9.60837 14.331 9.53908 14.1065 9.47537 13.7923L9.44146 13.6223C9.39159 13.3215 9.37017 13.0939 9.72288 13.0237C9.92171 12.9875 10.0531 13.0665 10.1078 13.2641C10.1163 13.2936 10.1269 13.3229 10.1309 13.3525L9.91453 13.3971C9.88952 13.3229 9.85641 13.1902 9.75905 13.2013C9.5843 13.2223 9.64202 13.4395 9.65997 13.5302L9.72501 13.8566C9.74456 13.9552 9.78339 14.1129 9.93461 14.0825C10.0574 14.0579 10.0039 13.8669 9.993 13.7887" fill="#0060AF"/>
<path d="M10.5617 14.1062L10.4868 12.8725L10.7775 12.7839L11.3871 13.8568L11.1582 13.9252L11.0137 13.6526L10.7596 13.7288L10.7924 14.0388L10.5617 14.1062ZM10.7383 13.5296L10.922 13.4764L10.6781 12.9773" fill="#0060AF"/>
<path d="M3.38187 13.1734C3.47284 12.8825 3.55437 12.6684 3.90149 12.7635C4.08729 12.8153 4.20246 12.8971 4.19701 13.1127C4.19611 13.1607 4.18025 13.2096 4.16988 13.257L3.95376 13.1973C3.98208 13.0783 4.00004 12.9839 3.85321 12.9387C3.68351 12.8922 3.64215 13.0977 3.61874 13.1864L3.53083 13.5099C3.5029 13.6059 3.46938 13.7646 3.61874 13.8055C3.74216 13.8387 3.81704 13.7177 3.86172 13.5411L3.71051 13.5011L3.76277 13.314L4.11827 13.4282L3.9495 14.0515L3.78592 14.0072L3.82276 13.8754H3.8181C3.74282 13.9831 3.65092 13.9944 3.57046 13.979C3.21496 13.883 3.25206 13.6509 3.33692 13.3409" fill="#0060AF"/>
<path d="M4.7045 13.7L4.59744 14.2071L4.35645 14.155L4.61326 12.9709L5.02409 13.0636C5.26455 13.1154 5.33716 13.2223 5.30312 13.4424C5.2837 13.5687 5.22132 13.7049 5.06904 13.6939L5.06745 13.6918C5.19619 13.7368 5.20709 13.8016 5.18462 13.9137C5.17491 13.9614 5.10801 14.2509 5.15416 14.2976L5.15575 14.3331L4.90639 14.2681C4.89601 14.1879 4.93126 14.0437 4.94522 13.9638C4.95932 13.8932 4.98179 13.7935 4.90998 13.7561C4.85372 13.7262 4.83284 13.7277 4.76927 13.713L4.7045 13.7ZM4.74559 13.5165L4.90785 13.5602C5.0064 13.5744 5.06119 13.5234 5.08061 13.4046C5.09817 13.2955 5.07542 13.2529 4.98698 13.2318L4.81302 13.1966" fill="#0060AF"/>
<path d="M6.25053 13.2355L6.48886 13.2631L6.38618 14.0955C6.33631 14.3594 6.23417 14.4749 5.94344 14.4387C5.64765 14.4014 5.57743 14.2669 5.59539 14.0008L5.69872 13.1691L5.93892 13.1966L5.83584 14.0097C5.82494 14.098 5.80446 14.2289 5.96179 14.2447C6.1013 14.2553 6.13296 14.163 6.14865 14.0482" fill="#0060AF"/>
<path d="M6.75146 14.4843L6.82315 13.2939L7.28106 13.3137C7.49744 13.3243 7.5541 13.5008 7.54732 13.6693C7.54106 13.7717 7.50901 13.886 7.41964 13.9481C7.34636 14.0008 7.2522 14.0133 7.16482 14.009L7.0156 14.0008L6.98581 14.4996L6.75146 14.4843ZM7.02238 13.8192L7.14367 13.826C7.24222 13.8296 7.30752 13.7907 7.31604 13.6461C7.32082 13.5073 7.26829 13.4838 7.14061 13.4782L7.04446 13.475" fill="#0060AF"/>
<path d="M39.0472 3.33688L37.2273 6.63586C36.5404 6.07879 35.7016 5.66876 34.6314 5.66876C32.0987 5.66876 31.07 7.55422 31.07 8.88235C31.07 9.86818 31.7163 11.3227 33.9698 11.3227C34.9157 11.3227 36.2604 10.6655 36.6475 10.3665L34.8475 14.1939C33.9895 14.3649 33.7077 14.4708 32.9814 14.4933C28.948 14.6135 27.3181 12.139 27.3193 9.61036C27.322 6.26767 30.2978 2.20241 35.2309 2.20241C35.5332 2.20241 35.9029 2.30681 36.2191 2.42251L36.5385 2.01447" fill="#0060AF"/>
<path d="M46.5568 2.11792L47.0722 14.1084H43.2369L43.2346 12.0519H40.6193L39.7586 14.1084H35.5991L39.9477 5.54615L38.9671 5.53978L40.8303 2.11792H46.5568ZM43.2097 5.78603L41.7311 9.27363H43.2543" fill="#0060AF"/>
<path d="M24.8984 2.11794C26.7978 2.12857 27.871 3.15823 27.871 4.64562C27.871 6.01678 26.7391 7.23054 25.4965 7.85814C26.7758 8.3278 26.8865 9.48073 26.8865 10.2964C26.8865 12.267 24.9066 14.1084 22.3329 14.1084H16.7202L18.9096 5.66545L18.0103 5.66027L19.8487 2.11794C19.8487 2.11794 23.354 2.10732 24.8984 2.11794ZM23.035 6.97936C23.4279 6.97936 24.1216 6.88001 24.295 6.12064C24.4851 5.29633 23.8341 5.27414 23.5218 5.27414L22.406 5.26926L22.0168 6.9794L23.035 6.97936ZM21.4574 9.0982L20.9437 11.0688H22.2575C22.7745 11.0688 23.479 10.8126 23.6516 10.1713C23.8221 9.52815 23.3296 9.0982 22.8145 9.0982" fill="#0060AF"/>
</g>
<defs>
<clipPath id="clip0_169_977">
<rect width="47.072" height="14.7335" fill="white" transform="translate(0 0.848145)"/>
</clipPath>
</defs>
</svg>
