<svg width="71" height="20" viewBox="0 0 71 20" fill="none" xmlns="http://www.w3.org/2000/svg">
<g clip-path="url(#clip0_169_959)">
<path fill-rule="evenodd" clip-rule="evenodd" d="M0 0.679016H70.7226V18.5175H0V0.679016Z" fill="white" fill-opacity="0.01"/>
<path d="M7.64589 17.2432C11.8686 17.2432 15.2918 13.8204 15.2918 9.59826C15.2918 5.3761 11.8686 1.95337 7.64589 1.95337C3.42318 1.95337 0 5.3761 0 9.59826C0 13.8204 3.42318 17.2432 7.64589 17.2432Z" fill="#00AED6"/>
<path fill-rule="evenodd" clip-rule="evenodd" d="M12.1016 9.3608C12.0763 8.89574 11.8674 8.45935 11.5202 8.14627C11.173 7.83319 10.7156 7.66869 10.2471 7.68844H5.41771C5.3757 7.6883 5.33413 7.67993 5.29537 7.66383C5.25661 7.64773 5.22142 7.6242 5.19181 7.59459C5.16221 7.56498 5.13877 7.52987 5.12283 7.49126C5.10688 7.45265 5.09875 7.41131 5.0989 7.36958C5.0989 7.19342 5.24147 7.05072 5.41771 7.05072H10.311C10.2988 6.72953 10.1843 6.42047 9.98403 6.16803C9.78371 5.91559 9.50791 5.73279 9.19632 5.64594C7.77059 5.39422 6.31134 5.39422 4.88561 5.64594C4.48846 5.74473 4.13035 5.95975 3.85772 6.26311C3.58509 6.56648 3.41053 6.94419 3.35666 7.34728C3.13046 8.84776 3.13046 10.3733 3.35666 11.8738C3.43957 12.2992 3.65051 12.6896 3.96159 12.9933C4.27267 13.2971 4.66925 13.5 5.0989 13.5751C6.86868 13.795 8.65914 13.795 10.4289 13.5751C10.8138 13.4954 11.1637 13.2975 11.429 13.0094C11.6943 12.7212 11.8617 12.3575 11.9074 11.9697C12.0645 11.109 12.1307 10.2349 12.1016 9.3608ZM10.5154 10.4311V10.7143C10.5155 10.756 10.5074 10.7974 10.4914 10.836C10.4755 10.8746 10.452 10.9097 10.4224 10.9393C10.3928 10.9689 10.3576 10.9924 10.3189 11.0085C10.2801 11.0246 10.2386 11.033 10.1965 11.0332C10.1545 11.033 10.113 11.0246 10.0742 11.0085C10.0354 10.9924 10.0002 10.9689 9.97064 10.9393C9.94103 10.9097 9.91759 10.8746 9.90165 10.836C9.88571 10.7974 9.87758 10.756 9.87773 10.7143V10.4311C9.80511 10.3669 9.75386 10.2824 9.73076 10.1886C9.70766 10.0948 9.71381 9.99629 9.74839 9.90607C9.78297 9.81586 9.84435 9.73821 9.92439 9.68344C10.0044 9.62866 10.0993 9.59935 10.1965 9.59939C10.2937 9.59935 10.3887 9.62866 10.4687 9.68344C10.5487 9.73821 10.6101 9.81586 10.6447 9.90607C10.6793 9.99629 10.6854 10.0948 10.6623 10.1886C10.6392 10.2824 10.588 10.3669 10.5154 10.4311Z" fill="white"/>
<path d="M21.2617 13.4001C21.5793 13.8546 22.0083 14.2213 22.5082 14.4655C23.008 14.7097 23.5623 14.8234 24.1187 14.7959C25.4512 14.7959 26.4301 13.9453 26.4301 12.7891V12.1792H26.3975C25.6678 12.8928 24.6721 13.2652 23.6539 13.2072C22.8621 13.2289 22.0788 13.0397 21.3854 12.6594C20.692 12.2791 20.1136 11.7214 19.7103 11.0443C19.3043 10.3652 19.0866 9.5914 19.0793 8.80164C19.072 8.01187 19.2754 7.23426 19.6688 6.54787C20.06 5.86382 20.6283 5.29613 21.3148 4.90367C22.0013 4.51121 22.781 4.30825 23.5731 4.31584C24.0872 4.28313 24.6025 4.35441 25.088 4.52535C25.5735 4.6963 26.019 4.96335 26.3975 5.31033H26.4301V4.47638H28.7089V12.7579C28.7089 15.165 26.8005 16.834 24.1187 16.834C23.2519 16.8804 22.3864 16.7212 21.5939 16.3696C20.8013 16.0179 20.1045 15.4838 19.561 14.8115L21.2617 13.4001ZM26.3347 8.24699C26.3347 7.28482 25.2424 6.40182 24.0233 6.40182C22.482 6.40182 21.4548 7.33276 21.4548 8.72862C21.4099 9.39088 21.6569 10.0386 22.134 10.4991C22.3687 10.7267 22.651 10.9003 22.9608 11.0076C23.2706 11.1149 23.6003 11.1533 23.9267 11.1201C25.2592 11.1201 26.3347 10.2861 26.3347 9.24259V8.24699ZM34.7091 4.23556C37.4864 4.23556 39.5093 6.20894 39.5093 8.72862C39.5093 11.2483 37.4864 13.2228 34.7091 13.2228C33.8854 13.2757 33.063 13.1024 32.332 12.7218C31.6009 12.3413 30.9894 11.7682 30.5645 11.0655C30.137 10.3601 29.9111 9.55244 29.9111 8.72918C29.9111 7.90592 30.137 7.09822 30.5645 6.3929C30.9894 5.69012 31.6009 5.11706 32.332 4.73652C33.063 4.35599 33.8854 4.18267 34.7091 4.23556ZM34.7091 6.32043C34.0692 6.32691 33.458 6.5853 33.0097 7.03889C32.5614 7.49248 32.3126 8.10421 32.318 8.73977C32.3186 9.37533 32.5731 9.98468 33.0256 10.4341C33.4781 10.8835 34.0916 11.1362 34.7316 11.1368C35.3715 11.1333 35.9839 10.8777 36.4343 10.4262C36.8846 9.97472 37.1363 9.36418 37.1339 8.72862C37.1488 8.40741 37.096 8.08664 36.9791 7.7868C36.8622 7.48695 36.6836 7.2146 36.4547 6.98714C36.2271 6.76077 35.954 6.58451 35.6532 6.46984C35.3525 6.35516 35.0308 6.30352 34.7091 6.32043ZM40.7419 4.47638H43.0207V5.23006H43.0544C43.4221 4.89142 43.8542 4.62905 44.3253 4.45829C44.7964 4.28752 45.297 4.21181 45.798 4.23556C48.2452 4.28016 50.2074 6.27361 50.2119 8.72082C50.2164 11.1691 48.2609 13.1693 45.8137 13.2228C44.8483 13.2451 43.9053 12.9274 43.1498 12.3242H43.1172V16.5932H40.7419V4.47638ZM45.4297 6.33827C44.1769 6.33827 43.1172 7.22016 43.1172 8.18344V9.2582C43.1172 10.2861 44.1455 11.1357 45.4443 11.1357C46.0828 11.1316 46.6934 10.8758 47.142 10.4246C47.5906 9.97345 47.8404 9.36381 47.8366 8.72974C47.8367 8.41569 47.7746 8.10468 47.6537 7.81448C47.5328 7.52428 47.3556 7.26056 47.1321 7.03839C46.9086 6.81622 46.6432 6.63994 46.3511 6.51962C46.059 6.3993 45.746 6.3373 45.4297 6.33716V6.33827ZM54.7887 7.91028C56.3457 7.7018 56.8116 7.4777 56.8116 7.044C56.8116 6.48209 56.2166 6.14539 55.3028 6.14539C54.8245 6.10618 54.3479 6.23831 53.9591 6.51785C53.5704 6.7974 53.2952 7.20591 53.1834 7.66947L50.936 7.20455C51.2571 5.47088 53.0397 4.23556 55.2377 4.23556C57.7254 4.23556 59.2678 5.50321 59.2678 7.57247V12.982H57.1315V12.051H57.0978C56.7421 12.4528 56.2978 12.7675 55.7996 12.9708C55.3013 13.174 54.7625 13.2603 54.2252 13.2228C52.3471 13.2228 51.0483 12.196 51.0483 10.6864C51.0483 9.09766 52.108 8.27932 54.7887 7.91028ZM57.0035 8.8089H56.9721C56.7622 9.11438 56.3132 9.29054 55.158 9.50014C53.7615 9.75657 53.2642 10.0286 53.2642 10.5258C53.2642 11.0398 53.6818 11.265 54.5799 11.265C55.945 11.265 57.0047 10.6385 57.0047 9.82011L57.0035 8.8089ZM63.7884 12.5171L59.856 4.47638H62.4728L65.0569 10.0286H65.0884L67.6411 4.47638H70.2736L64.3834 16.5954H61.7667L63.7884 12.5171Z" fill="black"/>
</g>
<defs>
<clipPath id="clip0_169_959">
<rect width="70.7209" height="18.6419" fill="white" transform="translate(0 0.679016)"/>
</clipPath>
</defs>
</svg>
