<svg width="67" height="20" viewBox="0 0 67 20" fill="none" xmlns="http://www.w3.org/2000/svg">
<g clip-path="url(#clip0_169_994)">
<path d="M0.291855 13.4002C0.291855 12.4444 0.27304 11.6385 0.224121 10.9225H2.04165L2.1282 12.1558H2.18089C2.59105 11.5073 3.34742 10.7351 4.75478 10.7351C5.85358 10.7351 6.71155 11.3499 7.06903 12.272H7.1029C7.39265 11.8109 7.73509 11.4698 8.1302 11.2299C8.59305 10.9038 9.1274 10.7314 9.81227 10.7314C11.2008 10.7314 12.6082 11.6722 12.6082 14.3373V19.2403H10.5498V14.6447C10.5498 13.2616 10.0682 12.4407 9.0559 12.4407C8.33717 12.4407 7.80282 12.9542 7.5808 13.5502C7.52812 13.7526 7.4792 14.0112 7.4792 14.2474V19.2365H5.42084V14.4161C5.42084 13.2578 4.95799 12.4369 3.9796 12.4369C3.19314 12.4369 2.65879 13.0516 2.47064 13.6326C2.38409 13.8426 2.35022 14.0825 2.35022 14.3224V19.244H0.291855V13.4002Z" fill="#003D79"/>
<path d="M20.625 17.2453C20.625 17.995 20.6589 18.7297 20.7455 19.2432H18.8414L18.7059 18.3211H18.6532C18.1377 18.9696 17.2647 19.4307 16.1847 19.4307C14.5026 19.4307 13.5581 18.2199 13.5581 16.953C13.5581 14.8501 15.4246 13.7931 18.514 13.808V13.6731C18.514 13.1258 18.2882 12.2187 16.8169 12.2187C15.9928 12.2187 15.1348 12.4774 14.5704 12.8335L14.1602 11.4653C14.7773 11.0905 15.8573 10.7306 17.1781 10.7306C19.8536 10.7306 20.6288 12.4249 20.6288 14.2354V17.2453H20.625ZM18.5667 15.18C17.0728 15.1462 15.6503 15.4686 15.6503 16.7318C15.6503 17.5527 16.1847 17.9276 16.8507 17.9276C17.6899 17.9276 18.307 17.3803 18.4952 16.7805C18.5479 16.6269 18.5629 16.4582 18.5629 16.3195V15.18H18.5667Z" fill="#003D79"/>
<path d="M22.0824 13.4002C22.0824 12.4444 22.0636 11.6385 22.0146 10.9225H23.866L23.9677 12.1708H24.0203C24.3816 11.5223 25.2885 10.7314 26.677 10.7314C28.1371 10.7314 29.646 11.6722 29.646 14.3036V19.2403H27.535V14.5435C27.535 13.3478 27.0872 12.4407 25.9395 12.4407C25.1003 12.4407 24.517 13.0404 24.2913 13.6701C24.2273 13.8613 24.2085 14.1199 24.2085 14.3561V19.244H22.0824V13.4002Z" fill="#003D79"/>
<path d="M38.7917 7.58075V16.9031C38.7917 17.7577 38.8256 18.6798 38.8595 19.2458H36.9742L36.8876 17.9301H36.8538C36.3571 18.8522 35.3448 19.4332 34.1256 19.4332C32.135 19.4332 30.5583 17.7427 30.5583 15.1788C30.5394 12.3937 32.2892 10.7332 34.2949 10.7332C35.4426 10.7332 36.2667 11.213 36.643 11.8277H36.6769L36.6844 7.58075H38.7917ZM36.6844 14.3916C36.6844 14.2229 36.6656 14.0168 36.6318 13.8443C36.4436 13.0272 35.7738 12.36 34.8142 12.36C33.4595 12.36 32.7032 13.5557 32.7032 15.1113C32.7032 16.6294 33.4595 17.7427 34.7992 17.7427C35.6534 17.7427 36.4097 17.1617 36.6167 16.2546C36.6694 16.0672 36.6844 15.861 36.6844 15.6398V14.3916Z" fill="#003D79"/>
<path d="M40.2837 10.9218H42.4121V19.2433H40.2837V10.9218Z" fill="#003D79"/>
<path d="M43.9027 13.6061C43.9027 12.4778 43.8839 11.6757 43.835 10.9222H45.6713L45.739 12.5078H45.8068C46.2169 11.3308 47.1953 10.9222 48.0909 10.9222C48.2941 10.9222 48.4145 10.8885 48.5876 10.9222V12.7702C48.4183 12.7365 48.2302 12.7027 47.9705 12.7027C46.9583 12.7027 46.2696 13.3512 46.0815 14.2883C46.0476 14.4757 46.0137 14.7006 46.0137 14.9405V19.2437H43.9027V13.6061Z" fill="#003D79"/>
<path d="M49.5645 10.9218H51.6898V19.2433H49.5645V10.9218Z" fill="#003D79"/>
<path d="M49.1302 0.851235C47.8508 1.58967 43.6776 3.96616 43.6776 3.96616C42.1122 4.61089 40.9118 3.82748 40.5242 3.25023C40.5054 3.22774 40.4903 3.2015 40.4791 3.18276L40.4264 3.09653L40.163 2.66548C40.0501 2.4893 39.9259 2.30562 39.7791 2.1182C39.6512 1.95327 39.5082 1.7921 39.3539 1.63466C38.3492 0.622592 36.7386 -0.0896149 34.0594 1.1811C32.4375 2.10321 28.667 4.25105 28.667 4.25105C27.1166 5.13567 25.9087 5.82163 25.9087 5.82163L27.3349 7.5684C27.937 8.13816 29.0659 9.07525 30.8119 8.28434C30.8119 8.28434 35.6361 5.50302 35.6549 5.49552C39.7791 3.24273 41.8149 5.39431 42.7105 6.82995C42.7406 6.87493 42.767 6.92366 42.7971 6.96489L42.8008 6.96864C42.8121 6.98739 42.8197 7.00238 42.8272 7.01737L42.9288 7.18231C43.3653 7.84577 44.0577 8.27308 44.8818 8.25059C45.3371 8.2431 45.6457 8.09318 46.0935 7.84578L50.7596 5.15067C50.7634 5.15067 50.7634 5.14692 50.7709 5.14692C54.9441 2.86414 57.0137 5.15816 57.898 6.5938C57.9658 6.7175 58.0448 6.83745 58.1238 6.94615C58.5603 7.5384 59.1662 7.92449 59.9301 7.90575C60.4343 7.8945 61.0025 7.59463 61.0891 7.53841L66.6847 4.32227C66.6847 4.32227 66.1127 3.46388 64.9349 2.12195C63.8812 0.926208 62.7636 1.46598 61.8755 1.90829C61.503 2.09196 58.8012 3.61756 58.8012 3.61756C57.3223 4.22481 56.1708 3.56133 55.7155 3.00282C55.6703 2.94284 55.6289 2.89038 55.5988 2.83416L55.4935 2.65422C55.3317 2.38059 55.136 2.07322 54.8989 1.7696C54.771 1.60467 54.628 1.43975 54.4737 1.28606C53.8528 0.660079 53.0024 0.150284 51.8095 0.150284C51.0531 0.150284 50.1726 0.348948 49.1302 0.851235Z" fill="#FFB700"/>
</g>
<defs>
<clipPath id="clip0_169_994">
<rect width="66.7558" height="19.5817" fill="white" transform="translate(0.0722656)"/>
</clipPath>
</defs>
</svg>
