<svg width="45" height="14" viewBox="0 0 45 14" fill="none" xmlns="http://www.w3.org/2000/svg">
<g clip-path="url(#clip0_169_969)">
<path fill-rule="evenodd" clip-rule="evenodd" d="M12.8228 11.7164C11.4657 13.0065 9.65815 13.7151 7.78587 13.6912C5.90428 13.7196 4.08623 13.0108 2.7203 11.7164C2.07762 11.0932 1.56665 10.3473 1.21771 9.52284C0.868768 8.6984 0.688965 7.81228 0.688965 6.91704C0.688965 6.02181 0.868768 5.13569 1.21771 4.31125C1.56665 3.48682 2.07762 2.74086 2.7203 2.11764C4.08449 0.815578 5.90598 0.102193 7.79159 0.131483C9.66387 0.107528 11.4714 0.816159 12.8285 2.10619C13.4719 2.72901 13.9835 3.47483 14.3329 4.29932C14.6823 5.12381 14.8624 6.01013 14.8624 6.9056C14.8624 7.80106 14.6823 8.68739 14.3329 9.51188C13.9835 10.3364 13.4719 11.0822 12.8285 11.705M7.79159 2.34087C7.19396 2.33509 6.60135 2.45045 6.04953 2.67999C5.4977 2.90953 4.9981 3.24849 4.58088 3.67642C4.16365 4.10434 3.83745 4.61236 3.62195 5.16982C3.40645 5.72727 3.30612 6.32261 3.32703 6.91991C3.32703 7.5047 3.44221 8.08376 3.666 8.62404C3.88979 9.16432 4.2178 9.65522 4.63131 10.0687C5.04482 10.4822 5.53573 10.8103 6.07601 11.034C6.61629 11.2578 7.19535 11.373 7.78014 11.373C8.36493 11.373 8.944 11.2578 9.48427 11.034C10.0246 10.8103 10.5155 10.4822 10.929 10.0687C11.3425 9.65522 11.6705 9.16432 11.8943 8.62404C12.1181 8.08376 12.2333 7.5047 12.2333 6.91991C12.2541 6.32455 12.1544 5.73112 11.9403 5.17521C11.7263 4.61929 11.4021 4.11233 10.9873 3.68473C10.5726 3.25713 10.0757 2.91769 9.52656 2.68677C8.97742 2.45584 8.3873 2.33819 7.79159 2.34087ZM29.542 1.72842L24.0987 13.8686L23.7896 13.8114C22.2327 13.5309 21.9179 13.1417 21.191 11.5619L17.1099 2.67285H15.576V0.514977H21.3742V2.67285H19.989L23.2687 10.0279L26.4512 2.67285H24.734V0.514977H29.542V1.72842ZM42.7068 11.7164C41.3321 12.986 39.5296 13.691 37.6584 13.691C35.7872 13.691 33.9846 12.986 32.61 11.7164C31.9673 11.0932 31.4563 10.3473 31.1074 9.52284C30.7584 8.6984 30.5786 7.81228 30.5786 6.91704C30.5786 6.02181 30.7584 5.13569 31.1074 4.31125C31.4563 3.48682 31.9673 2.74086 32.61 2.11764C33.9846 0.848095 35.7872 0.143083 37.6584 0.143083C39.5296 0.143083 41.3321 0.848095 42.7068 2.11764C43.3516 2.73963 43.8645 3.48518 44.2148 4.30978C44.5651 5.13438 44.7456 6.02112 44.7456 6.91704C44.7456 7.81297 44.5651 8.69971 44.2148 9.52431C43.8645 10.3489 43.3516 11.0945 42.7068 11.7164ZM37.6984 2.34087C37.1005 2.33512 36.5077 2.45046 35.9556 2.67994C35.4034 2.90941 34.9035 3.24828 34.4858 3.67612C34.0681 4.10395 33.7414 4.61191 33.5252 5.16939C33.3091 5.72687 33.208 6.32233 33.2281 6.91991C33.2281 7.5047 33.3433 8.08376 33.5671 8.62404C33.7909 9.16432 34.1189 9.65522 34.5324 10.0687C34.9459 10.4822 35.4369 10.8103 35.9771 11.034C36.5174 11.2578 37.0965 11.373 37.6813 11.373C38.2661 11.373 38.8451 11.2578 39.3854 11.034C39.9257 10.8103 40.4166 10.4822 40.8301 10.0687C41.2436 9.65522 41.5716 9.16432 41.7954 8.62404C42.0192 8.08376 42.1344 7.5047 42.1344 6.91991C42.156 6.32483 42.0571 5.73153 41.8436 5.17563C41.6302 4.61974 41.3066 4.11272 40.8923 3.68503C40.4779 3.25735 39.9814 2.91781 39.4326 2.68682C38.8838 2.45584 38.2939 2.33816 37.6984 2.34087Z" fill="#4B2489"/>
</g>
<defs>
<clipPath id="clip0_169_969">
<rect width="44.0732" height="13.7371" fill="white" transform="translate(0.694336 0.13147)"/>
</clipPath>
</defs>
</svg>
