<svg width="100" height="32" viewBox="0 0 100 32" fill="none" xmlns="http://www.w3.org/2000/svg">
<g clip-path="url(#clip0_169_942)">
<path d="M17.458 9.20043L31.1953 9.20043L31.1954 17.4423L25.4322 17.4423L31.1954 22.7169L26.2996 22.7169L20.6477 17.4423L20.6477 22.7169L17.458 22.7169L17.458 14.3382L27.5302 14.3382L27.5301 12.3326L17.458 12.3326L17.458 9.20043Z" fill="black"/>
<path d="M32.6211 22.7169L35.9784 22.7169L35.9784 9.17304L32.6211 9.17304L32.6211 22.7169Z" fill="black"/>
<path d="M5.73552 19.4476L5.7355 9.20037L3.10558 9.20036C2.62998 9.20036 2.26621 9.55778 2.26621 9.99677C2.26622 12.4151 2.23827 19.5301 2.23828 21.8926C2.23828 22.3322 2.60204 22.7168 3.04969 22.7168C4.86821 22.7168 10.0999 22.7168 10.855 22.7168L10.855 19.4476L5.73552 19.4476Z" fill="black"/>
<path d="M12.5894 26.0959C12.8975 26.0959 15.2474 26.0959 16.0311 26.0959C16.0311 26.0959 16.0311 19.4202 16.0311 19.3103C14.9117 19.3103 13.7372 19.3103 12.5893 19.3103C12.5893 21.563 12.5894 23.8157 12.5894 26.0959Z" fill="black"/>
<path d="M7.41405 9.20041C7.41405 9.25577 7.41405 12.5793 7.41405 12.5793C8.95289 12.5793 10.911 12.5793 12.5895 12.5793C12.5895 14.9151 12.5895 17.6346 12.5895 17.6346C13.3732 17.6346 15.7231 17.6346 16.0313 17.6346L16.0313 10.025C16.0313 9.58502 15.667 9.22761 15.22 9.20041C13.5415 9.20041 9.56818 9.20041 7.41405 9.20041Z" fill="black"/>
<path d="M7.41406 14.2275C7.41406 15.3541 7.41406 16.4807 7.41406 17.6617C7.69385 17.6617 8.0016 17.6617 8.28139 17.6617C9.06513 17.6617 10.0437 17.6617 10.8273 17.6617C10.8273 17.6617 10.8273 14.2828 10.8273 14.2275C9.70798 14.2275 8.56117 14.2275 7.41406 14.2275ZM9.82022 16.6177C9.48451 16.6177 9.09269 16.6177 8.78455 16.6177C8.67311 16.6177 8.56117 16.6177 8.42128 16.6177C8.42128 16.1505 8.42127 15.7115 8.42127 15.2443C8.89677 15.2443 9.34471 15.2443 9.82021 15.2443C9.82021 15.2715 9.82022 16.6177 9.82022 16.6177Z" fill="black"/>
<path d="M52.4578 19.3104L52.4578 24.3652C52.4578 24.8047 52.066 25.1619 51.619 25.1619L46.4712 25.1619L46.4712 25.986L52.4578 25.986L52.4863 25.986C52.9057 25.986 53.269 25.6289 53.269 25.1893L53.269 25.1619L53.269 19.3104L52.4578 19.3104Z" fill="black"/>
<path d="M0.839363 12.5522L0.839353 7.49689C0.839352 7.0579 1.17506 6.72768 1.6227 6.72768L6.77062 6.72768C6.79857 6.72768 6.79857 6.70048 6.79857 6.70048L6.79857 5.93127C6.79857 5.93127 6.79857 5.90407 6.77061 5.90407L0.83935 5.90407C0.36375 5.90407 -1.27031e-05 6.26149 -1.17658e-05 6.72768L-5.46788e-08 12.5522C0 12.5793 0.027959 12.5793 0.027959 12.5793L0.811404 12.5793C0.811404 12.5793 0.839363 12.5793 0.839363 12.5522Z" fill="black"/>
<path d="M51.0031 12.5521L51.0031 9.20041L37.4341 9.2004L37.4341 14.2275L37.4341 17.6074L46.4716 17.6074L46.4716 19.2829L37.4341 19.2829L37.4341 22.6619L51.0031 22.6619L51.0031 14.2557L41.9666 14.2557L41.9666 12.5521L51.0031 12.5521Z" fill="black"/>
</g>
<defs>
<clipPath id="clip0_169_942">
<rect width="100" height="32" fill="white"/>
</clipPath>
</defs>
</svg>
